<?xml version="1.0" encoding="UTF-8" standalone="no"?>
<!-- Generator: Adobe Illustrator 24.0.0, SVG Export Plug-In . SVG Version: 6.00 Build 0)  -->

<svg
   version="1.1"
   id="Layer_1"
   x="0px"
   y="0px"
   viewBox="0 0 1906.5596 375.12027"
   xml:space="preserve"
   sodipodi:docname="logo-dark.svg"
   inkscape:version="1.4.2 (f4327f4, 2025-05-13)"
   width="1906.5596"
   height="375.12027"
   inkscape:export-filename="Logo - V4.jpg"
   inkscape:export-xdpi="96"
   inkscape:export-ydpi="96"
   xmlns:inkscape="http://www.inkscape.org/namespaces/inkscape"
   xmlns:sodipodi="http://sodipodi.sourceforge.net/DTD/sodipodi-0.dtd"
   xmlns="http://www.w3.org/2000/svg"
   xmlns:svg="http://www.w3.org/2000/svg"><defs
   id="defs16" /><sodipodi:namedview
   id="namedview16"
   pagecolor="#ffffff"
   bordercolor="#ffffff"
   borderopacity="1"
   inkscape:showpageshadow="0"
   inkscape:pageopacity="0"
   inkscape:pagecheckerboard="1"
   inkscape:deskcolor="#EAF2FF"
   showgrid="true"
   inkscape:zoom="0.59277553"
   inkscape:cx="959.89117"
   inkscape:cy="-13.495834"
   inkscape:window-width="2560"
   inkscape:window-height="1364"
   inkscape:window-x="2544"
   inkscape:window-y="2160"
   inkscape:window-maximized="0"
   inkscape:current-layer="Layer_1"
   showguides="true"><inkscape:grid
     id="grid3"
     units="px"
     originx="-54.17745"
     originy="-62.439868"
     spacingx="1"
     spacingy="1"
     empcolor="#ffffff"
     empopacity="0.30196078"
     color="#ffffff"
     opacity="0.14902"
     empspacing="5"
     enabled="true"
     visible="true" /></sodipodi:namedview>
<style
   type="text/css"
   id="style1">
	.st0{fill:#ffffff;}
	.st1{fill:#1cd000;}
	.st2{fill:none;}
</style>






<g
   id="g1"><polygon
     class="st0"
     points="461.5,77.1 422.5,77.1 422.5,50.6 466.3,50.6 466.3,33.1 401.7,33.1 401.7,135.7 422.5,135.7 422.5,94.4 461.5,94.4 "
     id="polygon1"
     style="fill:#f3f4f7;fill-opacity:1"
     transform="matrix(1.1301211,0,0,1.1301211,-29.093497,92.742972)" /><path
     class="st0"
     d="m 546.92923,160.88927 c -25.65375,0 -42.60557,17.40387 -42.60557,42.49256 v 2.14723 c 0,25.31471 16.83881,42.71858 42.60557,42.71858 25.76676,0 42.60556,-17.40387 42.60556,-42.71858 v -1.92121 c 0.11301,-25.31471 -16.8388,-42.71858 -42.60556,-42.71858 z m 19.89013,44.63979 c 0,16.27374 -6.5547,25.2017 -19.77712,25.2017 -13.22242,0 -19.77712,-8.92796 -19.77712,-25.2017 v -2.14723 c 0,-16.16073 6.5547,-24.97568 19.77712,-24.97568 13.22242,0 19.77712,8.81495 19.77712,25.2017 z"
     id="path1"
     style="fill:#f3f4f7;fill-opacity:1;stroke-width:1.13012" /><path
     class="st0"
     d="m 654.29073,162.0194 c -1.24313,-0.33904 -3.39036,-0.45205 -4.97253,-0.45205 -12.20531,0 -20.45519,7.57181 -24.41062,17.62989 L 624.45553,163.0365 H 602.6442 v 83.17692 h 22.48941 v -40.1193 c 0,-14.69158 7.91085,-22.71544 22.82844,-22.71544 2.14723,0 4.6335,0.11302 6.32868,0.33904 z"
     id="path2"
     style="fill:#f3f4f7;fill-opacity:1;stroke-width:1.13012" /><polygon
     class="st0"
     points="680.2,135.7 701.1,135.7 723,62.1 703.4,62.1 689.7,114.9 676.5,62.1 656.7,62.1 643.4,114.6 630.2,62.1 610.1,62.1 631.8,135.7 652.7,135.7 666.4,84.2 "
     id="polygon2"
     style="fill:#f3f4f7;fill-opacity:1"
     transform="matrix(1.1301211,0,0,1.1301211,-29.093497,92.742972)" /><path
     class="st0"
     d="m 833.52794,160.88927 c -21.58531,0 -36.16388,9.94507 -37.52002,27.68797 h 21.24627 c 0.79109,-7.11976 6.55471,-10.62314 15.8217,-10.62314 9.83205,0 14.35254,4.18145 14.35254,11.07519 v 4.85952 l -30.51327,4.40747 c -15.14362,2.14723 -24.18459,10.51013 -24.18459,24.63664 0,14.69158 11.30121,25.31472 28.027,25.31472 12.20531,0 21.92435,-5.76362 26.89688,-14.80459 l 0.79109,12.77037 h 20.79423 v -56.84509 c -0.22603,-17.40387 -13.33543,-28.47906 -35.71183,-28.47906 z m 13.78748,54.81088 c 0,9.15398 -9.04097,15.59567 -19.89014,15.59567 -8.24988,0 -12.99639,-3.50338 -12.99639,-9.49302 0,-5.76362 3.50338,-8.70193 10.51013,-9.71904 l 22.48941,-3.05133 v 6.66772 z"
     id="path3"
     style="fill:#f3f4f7;fill-opacity:1;stroke-width:1.13012" /><path
     class="st0"
     d="m 908.68099,205.98111 c 0,-14.69158 7.91085,-22.71544 22.82845,-22.71544 2.14723,0 4.63349,0.11301 6.32868,0.33904 V 162.0194 c -1.24314,-0.33904 -3.39037,-0.45205 -4.97254,-0.45205 -12.2053,0 -20.45519,7.57181 -24.41061,17.62989 l -0.45205,-16.16074 h -21.69833 v 83.17692 H 908.794 v -40.23231 z"
     id="path4"
     style="fill:#f3f4f7;fill-opacity:1;stroke-width:1.13012" /><path
     class="st0"
     d="m 1010.8439,126.75962 v 47.35207 c -4.8595,-7.4588 -13.56141,-13.22242 -25.76672,-13.22242 -22.26339,0 -35.59882,18.08194 -35.59882,42.60557 v 2.14723 c 0,24.86266 13.90049,42.71858 36.16388,42.71858 13.56145,0 22.37636,-7.68483 26.21876,-15.14362 l 0.6781,12.99639 h 20.9073 v -119.4538 z m 0.7911,78.76944 c 0,16.27374 -6.7807,25.31471 -19.66408,25.31471 -12.77037,0 -19.66411,-9.04097 -19.66411,-25.31471 v -2.14723 c 0,-16.27375 6.89374,-25.31471 19.66411,-25.31471 12.88338,0 19.66408,9.04096 19.66408,25.31471 z"
     id="path5"
     style="fill:#f3f4f7;fill-opacity:1;stroke-width:1.13012" /></g>









<g
   id="g2"><polygon
     class="st0"
     points="401.7,304.1 401.7,321.4 430.5,321.4 430.5,405.5 451.4,405.5 451.4,321.4 480,321.4 480,304.1 "
     id="polygon5"
     style="fill:#f3f4f7;fill-opacity:1"
     transform="matrix(1.1301211,0,0,1.1301211,844.24576,-217.75779)" /><path
     class="st0"
     d="m 1444.6791,155.18218 c -13.2224,0 -21.5853,6.78072 -25.8797,14.23952 v -48.25617 h -22.7155 v 119.34079 h 22.4894 v -46.10894 c 0,-13.22242 7.1198,-20.90724 17.5169,-20.90724 10.7362,0 14.9176,7.11976 14.9176,19.21206 v 47.91713 h 22.3764 v -53.56774 c 0.113,-18.87302 -8.1369,-31.86941 -28.7051,-31.86941 z"
     id="path6"
     style="fill:#f3f4f7;fill-opacity:1;stroke-width:1.13012" /><rect
     x="1486.8325"
     y="157.21637"
     class="st0"
     width="22.48941"
     height="83.17691"
     id="rect6"
     style="fill:#f3f4f7;fill-opacity:1;stroke-width:1.13012" /><path
     class="st0"
     d="m 1571.2527,155.18218 c -13.9005,0 -22.0374,7.23277 -26.2188,15.03061 l -0.6781,-12.88338 h -21.6983 v 83.17691 h 22.4894 v -46.10894 c 0,-13.22242 7.1198,-20.90724 17.5169,-20.90724 10.7361,0 14.9176,7.11976 14.9176,19.21206 v 47.91713 h 22.3764 v -53.56774 c 0.113,-18.87302 -8.1369,-31.86941 -28.7051,-31.86941 z"
     id="path7"
     style="fill:#f3f4f7;fill-opacity:1;stroke-width:1.13012" /><polygon
     class="st0"
     points="700.3,379.2 707.2,372.2 728.6,405.5 750.8,405.5 721.3,360.1 749.7,331.8 726.3,331.8 700.3,358.2 700.3,299.8 680.3,299.8 680.3,405.5 700.3,405.5 "
     id="polygon7"
     style="fill:#f3f4f7;fill-opacity:1"
     transform="matrix(1.1301211,0,0,1.1301211,844.24576,-217.75779)" /><rect
     x="1699.6344"
     y="157.21637"
     class="st0"
     width="22.48941"
     height="83.17691"
     id="rect7"
     style="fill:#f3f4f7;fill-opacity:1;stroke-width:1.13012" /><path
     class="st0"
     d="m 1783.8285,155.18218 c -13.9005,0 -22.0374,7.23277 -26.2188,15.03061 l -0.6781,-12.88338 h -21.6983 v 83.17691 h 22.4894 v -46.10894 c 0,-13.22242 7.1197,-20.90724 17.5168,-20.90724 10.7362,0 14.9176,7.11976 14.9176,19.21206 v 47.91713 h 22.3764 v -53.56774 c 0.1131,-18.87302 -8.1368,-31.86941 -28.705,-31.86941 z"
     id="path8"
     style="fill:#f3f4f7;fill-opacity:1;stroke-width:1.13012" /><path
     class="st0"
     d="m 1885.7654,157.2164 -0.6781,12.77036 c -4.0684,-7.34578 -13.2224,-14.80458 -26.8969,-14.80458 -22.0373,0 -35.5988,18.08193 -35.5988,40.91038 v 1.80819 c 0,23.05448 13.9005,41.13641 36.1639,41.13641 12.0923,0 20.7942,-6.10265 25.0887,-13.90049 v 11.41423 c 0,10.84916 -5.9897,17.29085 -18.647,17.29085 -10.6232,0 -15.5957,-3.27735 -16.6128,-9.49302 h -24.0716 c 1.5822,15.14362 14.8046,25.65375 39.2152,25.65375 27.688,0 42.8316,-12.88338 42.8316,-35.93785 v -76.73522 h -20.7942 z m -0.9041,40.68435 c 0,14.69158 -6.7807,23.73255 -19.6641,23.73255 -12.6574,0 -19.6641,-9.04097 -19.6641,-23.73255 v -1.80819 c 0,-14.69157 6.8937,-23.73254 19.6641,-23.73254 12.8834,0 19.6641,9.04097 19.6641,23.73254 z"
     id="path9"
     style="fill:#f3f4f7;fill-opacity:1;stroke-width:1.13012" /><circle
     class="st0"
     cx="1711.2748"
     cy="117.66213"
     r="12.544345"
     id="circle9"
     style="fill:#f3f4f7;fill-opacity:1;stroke-width:1.13012" /><circle
     class="st0"
     cx="1498.4729"
     cy="117.66213"
     r="12.544345"
     id="circle10"
     style="fill:#f3f4f7;fill-opacity:1;stroke-width:1.13012" /></g>


<path
   class="st1"
   d="m 1229.8979,125.32784 h -128.5917 c -8.434,0 -15.3346,6.77139 -15.3346,15.04754 v 94.36952 c 0,8.27613 6.9006,15.04752 15.3346,15.04752 h 128.4822 c 8.4341,0 15.3346,-6.77139 15.3346,-15.04752 v -94.36952 c 0.1095,-8.27615 -6.791,-15.04754 -15.2251,-15.04754 z m -94.8554,106.40754 h -21.5781 v -88.24302 h 21.5781 z m 83.464,-69.43361 h -23.1114 v 69.5411 h -22.0161 v -69.5411 h -24.0973 l -4.1622,-18.70193 h 78.316 z"
   id="path12"
   style="fill:#1cd000;fill-opacity:1;stroke-width:1.08503" />



<g
   id="g3"><path
     class="st0"
     d="m 208.50273,282.82026 v 42.30001 c 0,20.8 -13.6,50 -43.8,50 -22.7,0 -37.6,-15 -43.5,-22.2 -22.699997,-0.70001 -40.499997,-7.60001 -52.799997,-20.70001 -14,-14.79999 -16.9,-33.4 -17.4,-42.7 -28.6,-15.39999 -37.1,-37.09999 -39.1,-52.89999 -1.5,-11.80001 0.4,-22 2,-27.80001 -5.4,-7.19999 -15,-23.9 -13.8,-50.69999 1.3,-29.2 25.7,-49.3 37,-57.1 -2.2,-10.300005 -3.5,-30.500005 12.3,-49.000005 16.9,-19.8 43.2,-21.2 54.699997,-20.7 19,-29.4 46.6,-34.6 65.1,-29.7 22.5,5.9 37,25.4 37,49.6 v 54.400005 c 0,4.6 -3.7,8.4 -8.4,8.4 v 0 c -4.6,0 -8.4,-3.7 -8.4,-8.4 V 51.320265 c 0,-16.4 -9.6,-29.5 -24.6,-33.5 -14.3,-3.8 -34.7,1.2 -49,26.4 -1.7,3 -5,4.6 -8.4,4.2 -0.3,0 -29.599997,-3.7 -45.299997,14.6 -15.5,18.1 -7.6,38.499995 -7.5,38.700005 1.6,3.9 0,8.4 -3.7,10.4 -0.3,0.2 -32.9,18.9 -34.1,46.8 -1.3,28.4 11.7,41.5 12.2,42 2.5,2.4 3.2,5.9 2,9.1 -0.7,1.69999 -16.3,43.7 31.9,66.7 3.1,1.5 5,4.7 4.7,8.1 0,0.2 -1,21.2 13,36 9.7,10.2 24.599997,15.4 44.299997,15.4 h 0.5 c 2.9,0 5.5,1.5 7,3.9 0.1,0.1 12.2,18.3 32.2,18.3 20.5,0 27.1,-22.4 27.1,-33.3 v -42.60001 c 0,-4.7 3.9,-8.5 8.6,-8.39999 4.7,0.1 8.2,4.1 8.2,8.69999 z"
     id="path10"
     style="fill:#f3f4f7;fill-opacity:1" /><path
     class="st0"
     d="m 369.10273,214.82026 -14.6,21 -84.6,121 c -8.2,11.10001 -21.2,17.7 -35,17.7 h -39.9 c 17.1,-12.3 25.1,-34.39999 25.1,-51.7 v -42.19999 c 0,-0.60001 0,-1.30001 -0.1,-1.9 v -4.5 l 11.2,-7.7 c 12.4,-8.5 19.8,-22.6 19.8,-37.7 v -68 c 0,-15.3 -7.7,-29.6 -20.4,-38.1 l -13,-8.6 V 63.220265 l 0.2,-31.4 c 0,-8.6 -4.2,-18.5 -10.8,-24.4 -3.1,-3.3 -6.9,-4.5 -8.9,-5 -0.1,0 -0.2,0 -0.3,-0.1 -0.3,-0.1 -0.6,-0.1 -0.9,-0.2 h 29.1 c 23.3,0 27.2,6.6 70,67.1 20.7,29.2 41.9,59.199995 58.4,82.299995 5.4,7.6 10.3,14.5 14.5,20.4 9.2,12.9 9.2,30.1 0.2,42.9 z"
     id="path11"
     style="fill:#f3f4f7;fill-opacity:1" /><path
     class="st1"
     d="m 171.40273,170.72026 -27.7,-27.4 v -38.49999 c 9.6,-3.1 16.6,-12.200005 16.6,-22.900005 0,-13.3 -10.8,-24.1 -24.1,-24.1 -13.3,0 -24.1,10.8 -24.1,24.1 0,10.7 7,19.800005 16.6,22.900005 v 44.69999 l 36.4,36.1 h 74.1 v -14.9 z m -35.1,-79.699995 c -5.1,0 -9.2,-4.1 -9.2,-9.2 0,-5.1 4.1,-9.2 9.2,-9.2 5.1,0 9.2,4.1 9.2,9.2 0,5.1 -4.1,9.2 -9.2,9.2 z"
     id="path13"
     style="fill:#1cd000;fill-opacity:1" /><path
     class="st1"
     d="m 93.302733,247.42027 c 2,-3.5 3.2,-7.60001 3.2,-12 0,-13.3 -10.8,-24.1 -24.1,-24.1 -13.3,0 -24.1,10.8 -24.1,24.1 0,13.3 10.8,24.1 24.1,24.1 3.5,0 6.8,-0.8 9.8,-2.1 l 23.299997,23.3 v 21.6 c 0,4.1 3.3,7.5 7.5,7.5 4.2,0 7.5,-3.3 7.5,-7.5 v -27.8 z m -20.9,-2.9 c -5.1,0 -9.2,-4.1 -9.2,-9.2 0,-5.1 4.1,-9.2 9.2,-9.2 5.1,0 9.2,4.1 9.2,9.2 0,5.1 -4.2,9.2 -9.2,9.2 z"
     id="path14"
     style="fill:#1cd000;fill-opacity:1" /><path
     class="st1"
     d="M 128.90273,213.12027 92.402733,175.22026 v -18.8 c 9.699997,-3.2 16.599997,-12.2 16.599997,-22.9 0,-13.3 -10.799997,-24.09999 -24.099997,-24.09999 -13.3,0 -24.1,10.8 -24.1,24.09999 0,10.7 7,19.8 16.6,22.9 v 24.8 l 45.099997,46.90001 h 116.9 v -15 z m -43.999997,-70.5 c -5.1,0 -9.2,-4.1 -9.2,-9.2 0,-5.1 4.1,-9.2 9.2,-9.2 5,0 9.2,4.1 9.2,9.2 0,5.1 -4.2,9.2 -9.2,9.2 z"
     id="path15"
     style="fill:#1cd000;fill-opacity:1" /><path
     class="st1"
     d="m 148.10273,269.02026 v 51.60001 c 0,4.1 3.3,7.5 7.5,7.5 4.1,0 7.5,-3.30001 7.5,-7.5 v -45.10001 l 17.9,-17 h 23.1 v -14.89999 h -29 z"
     id="path16"
     style="fill:#1cd000;fill-opacity:1" /></g>
</svg>
